<?xml version="1.0" encoding="UTF-8" standalone="no"?>
<!DOCTYPE svg PUBLIC "-//W3C//DTD SVG 1.1//EN"
 "http://www.w3.org/Graphics/SVG/1.1/DTD/svg11.dtd">
<!-- Generated by graphviz version 2.43.0 (0)
 -->
<!-- Title: %3 Pages: 1 -->
<svg width="783pt" height="930pt"
 viewBox="0.00 0.00 782.56 930.00" xmlns="http://www.w3.org/2000/svg" xmlns:xlink="http://www.w3.org/1999/xlink">
<g id="graph0" class="graph" transform="scale(1 1) rotate(0) translate(4 926)">
<title>%3</title>
<polygon fill="white" stroke="transparent" points="-4,4 -4,-926 778.56,-926 778.56,4 -4,4"/>
<text text-anchor="middle" x="387.28" y="-906.8" font-family="Times,serif" font-size="14.00">Field and domain properties (Database of Ring Theory, by R. C. Schwiebert)</text>
<!-- unique factorization domain -->
<g id="node1" class="node">
<title>unique factorization domain</title>
<ellipse fill="none" stroke="black" cx="109.81" cy="-378" rx="109.62" ry="18"/>
<text text-anchor="middle" x="109.81" y="-373.8" font-family="Times,serif" font-size="14.00">unique factorization domain</text>
</g>
<!-- Krull domain -->
<g id="node2" class="node">
<title>Krull domain</title>
<ellipse fill="none" stroke="black" cx="109.81" cy="-306" rx="57.52" ry="18"/>
<text text-anchor="middle" x="109.81" y="-301.8" font-family="Times,serif" font-size="14.00">Krull domain</text>
</g>
<!-- unique factorization domain&#45;&gt;Krull domain -->
<g id="edge1" class="edge">
<title>unique factorization domain&#45;&gt;Krull domain</title>
<path fill="none" stroke="black" d="M109.81,-359.7C109.81,-351.98 109.81,-342.71 109.81,-334.11"/>
<polygon fill="black" stroke="black" points="113.31,-334.1 109.81,-324.1 106.31,-334.1 113.31,-334.1"/>
</g>
<!-- GCD domain -->
<g id="node11" class="node">
<title>GCD domain</title>
<ellipse fill="none" stroke="black" cx="242.81" cy="-306" rx="57.53" ry="18"/>
<text text-anchor="middle" x="242.81" y="-301.8" font-family="Times,serif" font-size="14.00">GCD domain</text>
</g>
<!-- unique factorization domain&#45;&gt;GCD domain -->
<g id="edge7" class="edge">
<title>unique factorization domain&#45;&gt;GCD domain</title>
<path fill="none" stroke="black" d="M140.99,-360.59C160.3,-350.43 185.2,-337.32 205.55,-326.61"/>
<polygon fill="black" stroke="black" points="207.32,-329.63 214.54,-321.88 204.06,-323.44 207.32,-329.63"/>
</g>
<!-- normal domain -->
<g id="node16" class="node">
<title>normal domain</title>
<ellipse fill="none" stroke="black" cx="337.81" cy="-162" rx="63.79" ry="18"/>
<text text-anchor="middle" x="337.81" y="-157.8" font-family="Times,serif" font-size="14.00">normal domain</text>
</g>
<!-- Krull domain&#45;&gt;normal domain -->
<g id="edge32" class="edge">
<title>Krull domain&#45;&gt;normal domain</title>
<path fill="none" stroke="black" d="M130.38,-289.18C143.58,-278.86 160.97,-264.95 175.81,-252 193.34,-236.7 194.36,-228.77 213.81,-216 236.68,-200.98 264.52,-188.62 288.02,-179.63"/>
<polygon fill="black" stroke="black" points="289.32,-182.88 297.46,-176.11 286.87,-176.33 289.32,-182.88"/>
</g>
<!-- Mori domain -->
<g id="node24" class="node">
<title>Mori domain</title>
<ellipse fill="none" stroke="black" cx="109.81" cy="-234" rx="56.56" ry="18"/>
<text text-anchor="middle" x="109.81" y="-229.8" font-family="Times,serif" font-size="14.00">Mori domain</text>
</g>
<!-- Krull domain&#45;&gt;Mori domain -->
<g id="edge24" class="edge">
<title>Krull domain&#45;&gt;Mori domain</title>
<path fill="none" stroke="black" d="M109.81,-287.7C109.81,-279.98 109.81,-270.71 109.81,-262.11"/>
<polygon fill="black" stroke="black" points="113.31,-262.1 109.81,-252.1 106.31,-262.1 113.31,-262.1"/>
</g>
<!-- Euclidean domain -->
<g id="node3" class="node">
<title>Euclidean domain</title>
<ellipse fill="none" stroke="black" cx="216.81" cy="-522" rx="74.4" ry="18"/>
<text text-anchor="middle" x="216.81" y="-517.8" font-family="Times,serif" font-size="14.00">Euclidean domain</text>
</g>
<!-- principal ideal domain -->
<g id="node4" class="node">
<title>principal ideal domain</title>
<ellipse fill="none" stroke="black" cx="292.81" cy="-450" rx="89.84" ry="18"/>
<text text-anchor="middle" x="292.81" y="-445.8" font-family="Times,serif" font-size="14.00">principal ideal domain</text>
</g>
<!-- Euclidean domain&#45;&gt;principal ideal domain -->
<g id="edge2" class="edge">
<title>Euclidean domain&#45;&gt;principal ideal domain</title>
<path fill="none" stroke="black" d="M234.82,-504.41C244.5,-495.5 256.59,-484.36 267.23,-474.56"/>
<polygon fill="black" stroke="black" points="269.68,-477.06 274.66,-467.71 264.94,-471.91 269.68,-477.06"/>
</g>
<!-- principal ideal domain&#45;&gt;unique factorization domain -->
<g id="edge5" class="edge">
<title>principal ideal domain&#45;&gt;unique factorization domain</title>
<path fill="none" stroke="black" d="M253.1,-433.81C225.99,-423.44 189.85,-409.62 160.64,-398.44"/>
<polygon fill="black" stroke="black" points="161.61,-395.07 151.02,-394.77 159.11,-401.61 161.61,-395.07"/>
</g>
<!-- Dedekind domain -->
<g id="node13" class="node">
<title>Dedekind domain</title>
<ellipse fill="none" stroke="black" cx="310.81" cy="-378" rx="73.45" ry="18"/>
<text text-anchor="middle" x="310.81" y="-373.8" font-family="Times,serif" font-size="14.00">Dedekind domain</text>
</g>
<!-- principal ideal domain&#45;&gt;Dedekind domain -->
<g id="edge18" class="edge">
<title>principal ideal domain&#45;&gt;Dedekind domain</title>
<path fill="none" stroke="black" d="M297.26,-431.7C299.26,-423.9 301.68,-414.51 303.91,-405.83"/>
<polygon fill="black" stroke="black" points="307.31,-406.66 306.41,-396.1 300.53,-404.92 307.31,-406.66"/>
</g>
<!-- Bezout domain -->
<g id="node25" class="node">
<title>Bezout domain</title>
<ellipse fill="none" stroke="black" cx="465.81" cy="-378" rx="63.79" ry="18"/>
<text text-anchor="middle" x="465.81" y="-373.8" font-family="Times,serif" font-size="14.00">Bezout domain</text>
</g>
<!-- principal ideal domain&#45;&gt;Bezout domain -->
<g id="edge25" class="edge">
<title>principal ideal domain&#45;&gt;Bezout domain</title>
<path fill="none" stroke="black" d="M330.77,-433.64C357.46,-422.84 393.27,-408.35 421.31,-397.01"/>
<polygon fill="black" stroke="black" points="422.92,-400.13 430.87,-393.14 420.29,-393.64 422.92,-400.13"/>
</g>
<!-- Euclidean field -->
<g id="node5" class="node">
<title>Euclidean field</title>
<ellipse fill="none" stroke="black" cx="309.81" cy="-882" rx="63.29" ry="18"/>
<text text-anchor="middle" x="309.81" y="-877.8" font-family="Times,serif" font-size="14.00">Euclidean field</text>
</g>
<!-- Pythagorean field -->
<g id="node6" class="node">
<title>Pythagorean field</title>
<ellipse fill="none" stroke="black" cx="309.81" cy="-666" rx="72.49" ry="18"/>
<text text-anchor="middle" x="309.81" y="-661.8" font-family="Times,serif" font-size="14.00">Pythagorean field</text>
</g>
<!-- Euclidean field&#45;&gt;Pythagorean field -->
<g id="edge3" class="edge">
<title>Euclidean field&#45;&gt;Pythagorean field</title>
<path fill="none" stroke="black" d="M284,-865.37C270.08,-855.93 253.42,-842.86 241.81,-828 210.98,-788.56 183.99,-762.89 209.81,-720 219.68,-703.59 236.53,-692 253.61,-683.93"/>
<polygon fill="black" stroke="black" points="255.31,-687 263.08,-679.8 252.51,-680.59 255.31,-687"/>
</g>
<!-- ordered field -->
<g id="node20" class="node">
<title>ordered field</title>
<ellipse fill="none" stroke="black" cx="537.81" cy="-810" rx="55.09" ry="18"/>
<text text-anchor="middle" x="537.81" y="-805.8" font-family="Times,serif" font-size="14.00">ordered field</text>
</g>
<!-- Euclidean field&#45;&gt;ordered field -->
<g id="edge23" class="edge">
<title>Euclidean field&#45;&gt;ordered field</title>
<path fill="none" stroke="black" d="M351.1,-868.32C389.98,-856.39 448.24,-838.5 489.32,-825.89"/>
<polygon fill="black" stroke="black" points="490.57,-829.16 499.11,-822.88 488.52,-822.47 490.57,-829.16"/>
</g>
<!-- field -->
<g id="node8" class="node">
<title>field</title>
<ellipse fill="none" stroke="black" cx="380.81" cy="-594" rx="27" ry="18"/>
<text text-anchor="middle" x="380.81" y="-589.8" font-family="Times,serif" font-size="14.00">field</text>
</g>
<!-- Pythagorean field&#45;&gt;field -->
<g id="edge19" class="edge">
<title>Pythagorean field&#45;&gt;field</title>
<path fill="none" stroke="black" d="M326.63,-648.41C336.27,-638.91 348.47,-626.88 358.85,-616.65"/>
<polygon fill="black" stroke="black" points="361.36,-619.08 366.03,-609.57 356.45,-614.1 361.36,-619.08"/>
</g>
<!-- perfect field -->
<g id="node7" class="node">
<title>perfect field</title>
<ellipse fill="none" stroke="black" cx="452.81" cy="-666" rx="52.67" ry="18"/>
<text text-anchor="middle" x="452.81" y="-661.8" font-family="Times,serif" font-size="14.00">perfect field</text>
</g>
<!-- perfect field&#45;&gt;field -->
<g id="edge4" class="edge">
<title>perfect field&#45;&gt;field</title>
<path fill="none" stroke="black" d="M436.11,-648.76C426.21,-639.14 413.56,-626.84 402.85,-616.43"/>
<polygon fill="black" stroke="black" points="405.07,-613.71 395.46,-609.25 400.19,-618.73 405.07,-613.71"/>
</g>
<!-- field&#45;&gt;Euclidean domain -->
<g id="edge8" class="edge">
<title>field&#45;&gt;Euclidean domain</title>
<path fill="none" stroke="black" d="M358.69,-583.56C333.81,-572.94 292.76,-555.42 261.2,-541.95"/>
<polygon fill="black" stroke="black" points="262.31,-538.61 251.73,-537.91 259.56,-545.05 262.31,-538.61"/>
</g>
<!-- regular local -->
<g id="node12" class="node">
<title>regular local</title>
<ellipse fill="none" stroke="black" cx="111.81" cy="-450" rx="54.59" ry="18"/>
<text text-anchor="middle" x="111.81" y="-445.8" font-family="Times,serif" font-size="14.00">regular local</text>
</g>
<!-- field&#45;&gt;regular local -->
<g id="edge9" class="edge">
<title>field&#45;&gt;regular local</title>
<path fill="none" stroke="black" d="M354.18,-590.81C297.01,-585.55 165.14,-570.38 133.81,-540 117.42,-524.11 112.49,-498.08 111.32,-478.27"/>
<polygon fill="black" stroke="black" points="114.81,-477.9 111.01,-468.01 107.81,-478.11 114.81,-477.9"/>
</g>
<!-- universally Japanese domain -->
<g id="node17" class="node">
<title>universally Japanese domain</title>
<ellipse fill="none" stroke="black" cx="582.81" cy="-522" rx="111.55" ry="18"/>
<text text-anchor="middle" x="582.81" y="-517.8" font-family="Times,serif" font-size="14.00">universally Japanese domain</text>
</g>
<!-- field&#45;&gt;universally Japanese domain -->
<g id="edge14" class="edge">
<title>field&#45;&gt;universally Japanese domain</title>
<path fill="none" stroke="black" d="M404.37,-584.83C434.63,-574.35 488.05,-555.84 528.57,-541.79"/>
<polygon fill="black" stroke="black" points="529.75,-545.09 538.05,-538.51 527.46,-538.48 529.75,-545.09"/>
</g>
<!-- Goldman domain -->
<g id="node21" class="node">
<title>Goldman domain</title>
<ellipse fill="none" stroke="black" cx="702.81" cy="-162" rx="71.51" ry="18"/>
<text text-anchor="middle" x="702.81" y="-157.8" font-family="Times,serif" font-size="14.00">Goldman domain</text>
</g>
<!-- field&#45;&gt;Goldman domain -->
<g id="edge37" class="edge">
<title>field&#45;&gt;Goldman domain</title>
<path fill="none" stroke="black" d="M407.86,-592.35C477.66,-590.12 661.39,-580.44 703.81,-540 733.08,-512.09 722.81,-491.45 722.81,-451 722.81,-451 722.81,-451 722.81,-305 722.81,-264.82 714.86,-218.87 708.98,-190.39"/>
<polygon fill="black" stroke="black" points="712.36,-189.43 706.85,-180.38 705.51,-190.89 712.36,-189.43"/>
</g>
<!-- valuation domain -->
<g id="node30" class="node">
<title>valuation domain</title>
<ellipse fill="none" stroke="black" cx="380.81" cy="-522" rx="71.5" ry="18"/>
<text text-anchor="middle" x="380.81" y="-517.8" font-family="Times,serif" font-size="14.00">valuation domain</text>
</g>
<!-- field&#45;&gt;valuation domain -->
<g id="edge39" class="edge">
<title>field&#45;&gt;valuation domain</title>
<path fill="none" stroke="black" d="M380.81,-575.7C380.81,-567.98 380.81,-558.71 380.81,-550.11"/>
<polygon fill="black" stroke="black" points="384.31,-550.1 380.81,-540.1 377.31,-550.1 384.31,-550.1"/>
</g>
<!-- N&#45;1 -->
<g id="node9" class="node">
<title>N&#45;1</title>
<ellipse fill="none" stroke="black" cx="431.81" cy="-90" rx="27" ry="18"/>
<text text-anchor="middle" x="431.81" y="-85.8" font-family="Times,serif" font-size="14.00">N&#45;1</text>
</g>
<!-- domain -->
<g id="node10" class="node">
<title>domain</title>
<ellipse fill="none" stroke="black" cx="431.81" cy="-18" rx="36.77" ry="18"/>
<text text-anchor="middle" x="431.81" y="-13.8" font-family="Times,serif" font-size="14.00">domain</text>
</g>
<!-- N&#45;1&#45;&gt;domain -->
<g id="edge6" class="edge">
<title>N&#45;1&#45;&gt;domain</title>
<path fill="none" stroke="black" d="M431.81,-71.7C431.81,-63.98 431.81,-54.71 431.81,-46.11"/>
<polygon fill="black" stroke="black" points="435.31,-46.1 431.81,-36.1 428.31,-46.1 435.31,-46.1"/>
</g>
<!-- Schreier domain -->
<g id="node27" class="node">
<title>Schreier domain</title>
<ellipse fill="none" stroke="black" cx="290.81" cy="-234" rx="68.11" ry="18"/>
<text text-anchor="middle" x="290.81" y="-229.8" font-family="Times,serif" font-size="14.00">Schreier domain</text>
</g>
<!-- GCD domain&#45;&gt;Schreier domain -->
<g id="edge28" class="edge">
<title>GCD domain&#45;&gt;Schreier domain</title>
<path fill="none" stroke="black" d="M254.43,-288.05C260.15,-279.71 267.16,-269.49 273.49,-260.25"/>
<polygon fill="black" stroke="black" points="276.53,-262.02 279.29,-251.79 270.75,-258.06 276.53,-262.02"/>
</g>
<!-- regular local&#45;&gt;unique factorization domain -->
<g id="edge11" class="edge">
<title>regular local&#45;&gt;unique factorization domain</title>
<path fill="none" stroke="black" d="M111.31,-431.7C111.09,-423.98 110.83,-414.71 110.58,-406.11"/>
<polygon fill="black" stroke="black" points="114.08,-406 110.3,-396.1 107.08,-406.2 114.08,-406"/>
</g>
<!-- Dedekind domain&#45;&gt;Krull domain -->
<g id="edge41" class="edge">
<title>Dedekind domain&#45;&gt;Krull domain</title>
<path fill="none" stroke="black" d="M270.13,-362.83C237.24,-351.38 190.92,-335.25 156.51,-323.27"/>
<polygon fill="black" stroke="black" points="157.29,-319.83 146.7,-319.85 154.99,-326.44 157.29,-319.83"/>
</g>
<!-- almost Dedekind domain -->
<g id="node14" class="node">
<title>almost Dedekind domain</title>
<ellipse fill="none" stroke="black" cx="417.81" cy="-306" rx="99.03" ry="18"/>
<text text-anchor="middle" x="417.81" y="-301.8" font-family="Times,serif" font-size="14.00">almost Dedekind domain</text>
</g>
<!-- Dedekind domain&#45;&gt;almost Dedekind domain -->
<g id="edge10" class="edge">
<title>Dedekind domain&#45;&gt;almost Dedekind domain</title>
<path fill="none" stroke="black" d="M335.36,-360.94C349.83,-351.47 368.34,-339.36 384.16,-329.01"/>
<polygon fill="black" stroke="black" points="386.18,-331.87 392.63,-323.47 382.35,-326.02 386.18,-331.87"/>
</g>
<!-- Prufer domain -->
<g id="node22" class="node">
<title>Prufer domain</title>
<ellipse fill="none" stroke="black" cx="437.81" cy="-234" rx="60.89" ry="18"/>
<text text-anchor="middle" x="437.81" y="-229.8" font-family="Times,serif" font-size="14.00">Prufer domain</text>
</g>
<!-- almost Dedekind domain&#45;&gt;Prufer domain -->
<g id="edge21" class="edge">
<title>almost Dedekind domain&#45;&gt;Prufer domain</title>
<path fill="none" stroke="black" d="M422.75,-287.7C424.98,-279.9 427.66,-270.51 430.14,-261.83"/>
<polygon fill="black" stroke="black" points="433.54,-262.68 432.92,-252.1 426.81,-260.76 433.54,-262.68"/>
</g>
<!-- algebraically closed field -->
<g id="node15" class="node">
<title>algebraically closed field</title>
<ellipse fill="none" stroke="black" cx="349.81" cy="-810" rx="98.51" ry="18"/>
<text text-anchor="middle" x="349.81" y="-805.8" font-family="Times,serif" font-size="14.00">algebraically closed field</text>
</g>
<!-- algebraically closed field&#45;&gt;perfect field -->
<g id="edge12" class="edge">
<title>algebraically closed field&#45;&gt;perfect field</title>
<path fill="none" stroke="black" d="M382.53,-792.79C397.63,-783.82 414.65,-771.36 425.81,-756 439.04,-737.79 445.86,-713.02 449.34,-694.23"/>
<polygon fill="black" stroke="black" points="452.82,-694.66 450.98,-684.22 445.91,-693.53 452.82,-694.66"/>
</g>
<!-- quadratically closed field -->
<g id="node28" class="node">
<title>quadratically closed field</title>
<ellipse fill="none" stroke="black" cx="317.81" cy="-738" rx="99.01" ry="18"/>
<text text-anchor="middle" x="317.81" y="-733.8" font-family="Times,serif" font-size="14.00">quadratically closed field</text>
</g>
<!-- algebraically closed field&#45;&gt;quadratically closed field -->
<g id="edge31" class="edge">
<title>algebraically closed field&#45;&gt;quadratically closed field</title>
<path fill="none" stroke="black" d="M342.06,-792.05C338.42,-784.09 334,-774.41 329.93,-765.51"/>
<polygon fill="black" stroke="black" points="333.05,-763.91 325.7,-756.28 326.68,-766.83 333.05,-763.91"/>
</g>
<!-- normal domain&#45;&gt;N&#45;1 -->
<g id="edge13" class="edge">
<title>normal domain&#45;&gt;N&#45;1</title>
<path fill="none" stroke="black" d="M359.61,-144.76C373.57,-134.37 391.75,-120.83 406.37,-109.94"/>
<polygon fill="black" stroke="black" points="408.58,-112.66 414.51,-103.88 404.4,-107.05 408.58,-112.66"/>
</g>
<!-- Japanese (N&#45;2) -->
<g id="node18" class="node">
<title>Japanese (N&#45;2)</title>
<ellipse fill="none" stroke="black" cx="582.81" cy="-450" rx="63.28" ry="18"/>
<text text-anchor="middle" x="582.81" y="-445.8" font-family="Times,serif" font-size="14.00">Japanese (N&#45;2)</text>
</g>
<!-- universally Japanese domain&#45;&gt;Japanese (N&#45;2) -->
<g id="edge15" class="edge">
<title>universally Japanese domain&#45;&gt;Japanese (N&#45;2)</title>
<path fill="none" stroke="black" d="M582.81,-503.7C582.81,-495.98 582.81,-486.71 582.81,-478.11"/>
<polygon fill="black" stroke="black" points="586.31,-478.1 582.81,-468.1 579.31,-478.1 586.31,-478.1"/>
</g>
<!-- Japanese (N&#45;2)&#45;&gt;N&#45;1 -->
<g id="edge16" class="edge">
<title>Japanese (N&#45;2)&#45;&gt;N&#45;1</title>
<path fill="none" stroke="black" d="M582.81,-431.95C582.81,-405.29 582.81,-352.11 582.81,-307 582.81,-307 582.81,-307 582.81,-233 582.81,-168.29 508.32,-124.43 463.97,-104.05"/>
<polygon fill="black" stroke="black" points="465.3,-100.81 454.74,-99.95 462.46,-107.21 465.3,-100.81"/>
</g>
<!-- Archimedean field -->
<g id="node19" class="node">
<title>Archimedean field</title>
<ellipse fill="none" stroke="black" cx="537.81" cy="-882" rx="75.85" ry="18"/>
<text text-anchor="middle" x="537.81" y="-877.8" font-family="Times,serif" font-size="14.00">Archimedean field</text>
</g>
<!-- Archimedean field&#45;&gt;ordered field -->
<g id="edge17" class="edge">
<title>Archimedean field&#45;&gt;ordered field</title>
<path fill="none" stroke="black" d="M537.81,-863.7C537.81,-855.98 537.81,-846.71 537.81,-838.11"/>
<polygon fill="black" stroke="black" points="541.31,-838.1 537.81,-828.1 534.31,-838.1 541.31,-838.1"/>
</g>
<!-- characteristic 0 field -->
<g id="node26" class="node">
<title>characteristic 0 field</title>
<ellipse fill="none" stroke="black" cx="554.81" cy="-738" rx="81.61" ry="18"/>
<text text-anchor="middle" x="554.81" y="-733.8" font-family="Times,serif" font-size="14.00">characteristic 0 field</text>
</g>
<!-- ordered field&#45;&gt;characteristic 0 field -->
<g id="edge30" class="edge">
<title>ordered field&#45;&gt;characteristic 0 field</title>
<path fill="none" stroke="black" d="M542.01,-791.7C543.9,-783.9 546.18,-774.51 548.29,-765.83"/>
<polygon fill="black" stroke="black" points="551.69,-766.65 550.65,-756.1 544.89,-765 551.69,-766.65"/>
</g>
<!-- Goldman domain&#45;&gt;domain -->
<g id="edge20" class="edge">
<title>Goldman domain&#45;&gt;domain</title>
<path fill="none" stroke="black" d="M673.29,-145.53C622.43,-118.88 518.61,-64.48 465.2,-36.49"/>
<polygon fill="black" stroke="black" points="466.62,-33.29 456.14,-31.75 463.37,-39.49 466.62,-33.29"/>
</g>
<!-- Prufer domain&#45;&gt;normal domain -->
<g id="edge33" class="edge">
<title>Prufer domain&#45;&gt;normal domain</title>
<path fill="none" stroke="black" d="M415.12,-217.12C401.53,-207.61 384.07,-195.38 369.18,-184.96"/>
<polygon fill="black" stroke="black" points="370.95,-181.93 360.76,-179.06 366.94,-187.67 370.95,-181.93"/>
</g>
<!-- atomic domain -->
<g id="node23" class="node">
<title>atomic domain</title>
<ellipse fill="none" stroke="black" cx="305.81" cy="-90" rx="62.82" ry="18"/>
<text text-anchor="middle" x="305.81" y="-85.8" font-family="Times,serif" font-size="14.00">atomic domain</text>
</g>
<!-- atomic domain&#45;&gt;domain -->
<g id="edge22" class="edge">
<title>atomic domain&#45;&gt;domain</title>
<path fill="none" stroke="black" d="M333.46,-73.64C352.93,-62.82 379.07,-48.3 399.5,-36.95"/>
<polygon fill="black" stroke="black" points="401.41,-39.89 408.45,-31.98 398.01,-33.77 401.41,-39.89"/>
</g>
<!-- ACCP domain -->
<g id="node29" class="node">
<title>ACCP domain</title>
<ellipse fill="none" stroke="black" cx="175.81" cy="-162" rx="61.74" ry="18"/>
<text text-anchor="middle" x="175.81" y="-157.8" font-family="Times,serif" font-size="14.00">ACCP domain</text>
</g>
<!-- Mori domain&#45;&gt;ACCP domain -->
<g id="edge35" class="edge">
<title>Mori domain&#45;&gt;ACCP domain</title>
<path fill="none" stroke="black" d="M125.45,-216.41C133.75,-207.61 144.1,-196.63 153.26,-186.92"/>
<polygon fill="black" stroke="black" points="155.97,-189.15 160.28,-179.47 150.87,-184.34 155.97,-189.15"/>
</g>
<!-- Bezout domain&#45;&gt;GCD domain -->
<g id="edge34" class="edge">
<title>Bezout domain&#45;&gt;GCD domain</title>
<path fill="none" stroke="black" d="M424.91,-364.16C387.35,-352.37 331.64,-334.88 291.74,-322.36"/>
<polygon fill="black" stroke="black" points="292.54,-318.94 281.95,-319.29 290.45,-325.62 292.54,-318.94"/>
</g>
<!-- Bezout domain&#45;&gt;Prufer domain -->
<g id="edge29" class="edge">
<title>Bezout domain&#45;&gt;Prufer domain</title>
<path fill="none" stroke="black" d="M492.19,-361.34C504.88,-352.22 518.84,-339.46 525.81,-324 532.38,-309.41 533.68,-301.93 525.81,-288 516.93,-272.29 501.33,-260.73 485.71,-252.48"/>
<polygon fill="black" stroke="black" points="487.08,-249.25 476.56,-248 484,-255.54 487.08,-249.25"/>
</g>
<!-- characteristic 0 field&#45;&gt;perfect field -->
<g id="edge26" class="edge">
<title>characteristic 0 field&#45;&gt;perfect field</title>
<path fill="none" stroke="black" d="M531.15,-720.76C517.08,-711.11 499.07,-698.75 483.86,-688.31"/>
<polygon fill="black" stroke="black" points="485.51,-685.2 475.29,-682.43 481.55,-690.97 485.51,-685.2"/>
</g>
<!-- Schreier domain&#45;&gt;normal domain -->
<g id="edge27" class="edge">
<title>Schreier domain&#45;&gt;normal domain</title>
<path fill="none" stroke="black" d="M302.18,-216.05C307.78,-207.71 314.65,-197.49 320.85,-188.25"/>
<polygon fill="black" stroke="black" points="323.87,-190.04 326.53,-179.79 318.05,-186.14 323.87,-190.04"/>
</g>
<!-- quadratically closed field&#45;&gt;Pythagorean field -->
<g id="edge38" class="edge">
<title>quadratically closed field&#45;&gt;Pythagorean field</title>
<path fill="none" stroke="black" d="M315.83,-719.7C314.95,-711.98 313.89,-702.71 312.91,-694.11"/>
<polygon fill="black" stroke="black" points="316.38,-693.64 311.76,-684.1 309.42,-694.44 316.38,-693.64"/>
</g>
<!-- ACCP domain&#45;&gt;atomic domain -->
<g id="edge36" class="edge">
<title>ACCP domain&#45;&gt;atomic domain</title>
<path fill="none" stroke="black" d="M204.02,-145.81C222.92,-135.63 248.03,-122.11 268.57,-111.05"/>
<polygon fill="black" stroke="black" points="270.51,-113.98 277.65,-106.16 267.19,-107.82 270.51,-113.98"/>
</g>
<!-- valuation domain&#45;&gt;Bezout domain -->
<g id="edge40" class="edge">
<title>valuation domain&#45;&gt;Bezout domain</title>
<path fill="none" stroke="black" d="M390.89,-504.15C405.65,-479.49 433.26,-433.37 450.52,-404.53"/>
<polygon fill="black" stroke="black" points="453.6,-406.2 455.74,-395.82 447.6,-402.61 453.6,-406.2"/>
</g>
</g>
</svg>
