<?xml version="1.0" encoding="UTF-8" standalone="no"?>
<!DOCTYPE svg PUBLIC "-//W3C//DTD SVG 1.1//EN"
 "http://www.w3.org/Graphics/SVG/1.1/DTD/svg11.dtd">
<!-- Generated by graphviz version 2.40.1 (20161225.0304)
 -->
<!-- Title: %3 Pages: 1 -->
<svg width="825pt" height="930pt"
 viewBox="0.00 0.00 824.56 930.00" xmlns="http://www.w3.org/2000/svg" xmlns:xlink="http://www.w3.org/1999/xlink">
<g id="graph0" class="graph" transform="scale(1 1) rotate(0) translate(4 926)">
<title>%3</title>
<polygon fill="#ffffff" stroke="transparent" points="-4,4 -4,-926 820.5637,-926 820.5637,4 -4,4"/>
<text text-anchor="middle" x="408.2819" y="-906.8" font-family="Times,serif" font-size="14.00" fill="#000000">Field and domain properties (Database of Ring Theory, by R. C. Schwiebert)</text>
<!-- unique factorization domain -->
<g id="node1" class="node">
<title>unique factorization domain</title>
<ellipse fill="none" stroke="#000000" cx="109.8074" cy="-378" rx="109.6151" ry="18"/>
<text text-anchor="middle" x="109.8074" y="-373.8" font-family="Times,serif" font-size="14.00" fill="#000000">unique factorization domain</text>
</g>
<!-- atomic domain -->
<g id="node2" class="node">
<title>atomic domain</title>
<ellipse fill="none" stroke="#000000" cx="65.8074" cy="-162" rx="62.8172" ry="18"/>
<text text-anchor="middle" x="65.8074" y="-157.8" font-family="Times,serif" font-size="14.00" fill="#000000">atomic domain</text>
</g>
<!-- unique factorization domain&#45;&gt;atomic domain -->
<g id="edge1" class="edge">
<title>unique factorization domain&#45;&gt;atomic domain</title>
<path fill="none" stroke="#000000" d="M99.7506,-360.0586C94.4557,-349.8045 88.3442,-336.5273 84.8074,-324 71.9498,-278.4586 67.7822,-223.3436 66.4383,-190.5594"/>
<polygon fill="#000000" stroke="#000000" points="69.9285,-190.2154 66.0823,-180.3434 62.9327,-190.4593 69.9285,-190.2154"/>
</g>
<!-- Krull domain -->
<g id="node3" class="node">
<title>Krull domain</title>
<ellipse fill="none" stroke="#000000" cx="151.8074" cy="-306" rx="57.5218" ry="18"/>
<text text-anchor="middle" x="151.8074" y="-301.8" font-family="Times,serif" font-size="14.00" fill="#000000">Krull domain</text>
</g>
<!-- unique factorization domain&#45;&gt;Krull domain -->
<g id="edge2" class="edge">
<title>unique factorization domain&#45;&gt;Krull domain</title>
<path fill="none" stroke="#000000" d="M120.4058,-359.8314C125.2174,-351.5829 131.0037,-341.6635 136.2912,-332.5992"/>
<polygon fill="#000000" stroke="#000000" points="139.3424,-334.3148 141.3579,-323.9134 133.2959,-330.7876 139.3424,-334.3148"/>
</g>
<!-- GCD domain -->
<g id="node12" class="node">
<title>GCD domain</title>
<ellipse fill="none" stroke="#000000" cx="284.8074" cy="-306" rx="57.5305" ry="18"/>
<text text-anchor="middle" x="284.8074" y="-301.8" font-family="Times,serif" font-size="14.00" fill="#000000">GCD domain</text>
</g>
<!-- unique factorization domain&#45;&gt;GCD domain -->
<g id="edge8" class="edge">
<title>unique factorization domain&#45;&gt;GCD domain</title>
<path fill="none" stroke="#000000" d="M150.8371,-361.1192C177.7674,-350.0393 212.9709,-335.5556 240.5328,-324.2158"/>
<polygon fill="#000000" stroke="#000000" points="242.0209,-327.3883 249.937,-320.3467 239.3574,-320.9148 242.0209,-327.3883"/>
</g>
<!-- domain -->
<g id="node11" class="node">
<title>domain</title>
<ellipse fill="none" stroke="#000000" cx="239.8074" cy="-18" rx="36.7663" ry="18"/>
<text text-anchor="middle" x="239.8074" y="-13.8" font-family="Times,serif" font-size="14.00" fill="#000000">domain</text>
</g>
<!-- atomic domain&#45;&gt;domain -->
<g id="edge23" class="edge">
<title>atomic domain&#45;&gt;domain</title>
<path fill="none" stroke="#000000" d="M69.8193,-143.7655C75.1043,-123.7141 86.2367,-91.7286 106.8074,-72 131.2628,-48.5457 167.2592,-34.7726 195.6383,-27.0132"/>
<polygon fill="#000000" stroke="#000000" points="196.5187,-30.4008 205.3272,-24.5134 194.7699,-23.6227 196.5187,-30.4008"/>
</g>
<!-- normal domain -->
<g id="node17" class="node">
<title>normal domain</title>
<ellipse fill="none" stroke="#000000" cx="290.8074" cy="-162" rx="63.7863" ry="18"/>
<text text-anchor="middle" x="290.8074" y="-157.8" font-family="Times,serif" font-size="14.00" fill="#000000">normal domain</text>
</g>
<!-- Krull domain&#45;&gt;normal domain -->
<g id="edge33" class="edge">
<title>Krull domain&#45;&gt;normal domain</title>
<path fill="none" stroke="#000000" d="M161.5848,-288.0445C172.6142,-268.8167 191.8967,-238.0948 213.8074,-216 225.6907,-204.0169 240.5302,-192.9074 254.0017,-183.9195"/>
<polygon fill="#000000" stroke="#000000" points="256.129,-186.7115 262.612,-178.3317 252.3183,-180.8396 256.129,-186.7115"/>
</g>
<!-- Mori domain -->
<g id="node24" class="node">
<title>Mori domain</title>
<ellipse fill="none" stroke="#000000" cx="172.8074" cy="-90" rx="56.5614" ry="18"/>
<text text-anchor="middle" x="172.8074" y="-85.8" font-family="Times,serif" font-size="14.00" fill="#000000">Mori domain</text>
</g>
<!-- Krull domain&#45;&gt;Mori domain -->
<g id="edge25" class="edge">
<title>Krull domain&#45;&gt;Mori domain</title>
<path fill="none" stroke="#000000" d="M153.5617,-287.9555C157.2213,-250.3144 165.692,-163.1867 170.0731,-118.1246"/>
<polygon fill="#000000" stroke="#000000" points="173.5591,-118.4369 171.0433,-108.1451 166.592,-117.7594 173.5591,-118.4369"/>
</g>
<!-- Euclidean domain -->
<g id="node4" class="node">
<title>Euclidean domain</title>
<ellipse fill="none" stroke="#000000" cx="258.8074" cy="-522" rx="74.4013" ry="18"/>
<text text-anchor="middle" x="258.8074" y="-517.8" font-family="Times,serif" font-size="14.00" fill="#000000">Euclidean domain</text>
</g>
<!-- principal ideal domain -->
<g id="node5" class="node">
<title>principal ideal domain</title>
<ellipse fill="none" stroke="#000000" cx="292.8074" cy="-450" rx="89.8445" ry="18"/>
<text text-anchor="middle" x="292.8074" y="-445.8" font-family="Times,serif" font-size="14.00" fill="#000000">principal ideal domain</text>
</g>
<!-- Euclidean domain&#45;&gt;principal ideal domain -->
<g id="edge3" class="edge">
<title>Euclidean domain&#45;&gt;principal ideal domain</title>
<path fill="none" stroke="#000000" d="M267.387,-503.8314C271.1432,-495.8771 275.6331,-486.369 279.7872,-477.5723"/>
<polygon fill="#000000" stroke="#000000" points="283.007,-478.9503 284.1122,-468.4133 276.6773,-475.9612 283.007,-478.9503"/>
</g>
<!-- principal ideal domain&#45;&gt;unique factorization domain -->
<g id="edge6" class="edge">
<title>principal ideal domain&#45;&gt;unique factorization domain</title>
<path fill="none" stroke="#000000" d="M251.7386,-433.8418C225.1343,-423.3745 190.258,-409.6527 161.7358,-398.4308"/>
<polygon fill="#000000" stroke="#000000" points="162.9149,-395.1336 152.3278,-394.7293 160.352,-401.6476 162.9149,-395.1336"/>
</g>
<!-- Dedekind domain -->
<g id="node14" class="node">
<title>Dedekind domain</title>
<ellipse fill="none" stroke="#000000" cx="310.8074" cy="-378" rx="73.4496" ry="18"/>
<text text-anchor="middle" x="310.8074" y="-373.8" font-family="Times,serif" font-size="14.00" fill="#000000">Dedekind domain</text>
</g>
<!-- principal ideal domain&#45;&gt;Dedekind domain -->
<g id="edge19" class="edge">
<title>principal ideal domain&#45;&gt;Dedekind domain</title>
<path fill="none" stroke="#000000" d="M297.3496,-431.8314C299.2958,-424.0463 301.6142,-414.7729 303.7737,-406.1347"/>
<polygon fill="#000000" stroke="#000000" points="307.1742,-406.9636 306.2041,-396.4133 300.3832,-405.2658 307.1742,-406.9636"/>
</g>
<!-- Bezout domain -->
<g id="node25" class="node">
<title>Bezout domain</title>
<ellipse fill="none" stroke="#000000" cx="465.8074" cy="-378" rx="63.7863" ry="18"/>
<text text-anchor="middle" x="465.8074" y="-373.8" font-family="Times,serif" font-size="14.00" fill="#000000">Bezout domain</text>
</g>
<!-- principal ideal domain&#45;&gt;Bezout domain -->
<g id="edge26" class="edge">
<title>principal ideal domain&#45;&gt;Bezout domain</title>
<path fill="none" stroke="#000000" d="M332.0638,-433.6621C358.3711,-422.7134 393.0885,-408.2645 420.5584,-396.832"/>
<polygon fill="#000000" stroke="#000000" points="422.0594,-399.9983 429.9469,-392.9246 419.3697,-393.5357 422.0594,-399.9983"/>
</g>
<!-- Euclidean field -->
<g id="node6" class="node">
<title>Euclidean field</title>
<ellipse fill="none" stroke="#000000" cx="351.8074" cy="-882" rx="63.2931" ry="18"/>
<text text-anchor="middle" x="351.8074" y="-877.8" font-family="Times,serif" font-size="14.00" fill="#000000">Euclidean field</text>
</g>
<!-- Pythagorean field -->
<g id="node7" class="node">
<title>Pythagorean field</title>
<ellipse fill="none" stroke="#000000" cx="351.8074" cy="-666" rx="72.4893" ry="18"/>
<text text-anchor="middle" x="351.8074" y="-661.8" font-family="Times,serif" font-size="14.00" fill="#000000">Pythagorean field</text>
</g>
<!-- Euclidean field&#45;&gt;Pythagorean field -->
<g id="edge4" class="edge">
<title>Euclidean field&#45;&gt;Pythagorean field</title>
<path fill="none" stroke="#000000" d="M315.9523,-866.9191C298.9104,-857.9949 279.7095,-845.0632 267.8074,-828 240.0469,-788.2015 226.9498,-761.6734 251.8074,-720 261.5296,-703.7009 278.0634,-692.0266 294.9175,-683.8027"/>
<polygon fill="#000000" stroke="#000000" points="296.5972,-686.8846 304.2727,-679.5814 293.7181,-680.5041 296.5972,-686.8846"/>
</g>
<!-- ordered field -->
<g id="node21" class="node">
<title>ordered field</title>
<ellipse fill="none" stroke="#000000" cx="579.8074" cy="-810" rx="55.0906" ry="18"/>
<text text-anchor="middle" x="579.8074" y="-805.8" font-family="Times,serif" font-size="14.00" fill="#000000">ordered field</text>
</g>
<!-- Euclidean field&#45;&gt;ordered field -->
<g id="edge24" class="edge">
<title>Euclidean field&#45;&gt;ordered field</title>
<path fill="none" stroke="#000000" d="M394.425,-868.5418C433.0043,-856.3589 489.8338,-838.4127 530.3899,-825.6055"/>
<polygon fill="#000000" stroke="#000000" points="531.5886,-828.8974 540.0704,-822.5485 529.4806,-822.2224 531.5886,-828.8974"/>
</g>
<!-- field -->
<g id="node9" class="node">
<title>field</title>
<ellipse fill="none" stroke="#000000" cx="422.8074" cy="-594" rx="27" ry="18"/>
<text text-anchor="middle" x="422.8074" y="-589.8" font-family="Times,serif" font-size="14.00" fill="#000000">field</text>
</g>
<!-- Pythagorean field&#45;&gt;field -->
<g id="edge20" class="edge">
<title>Pythagorean field&#45;&gt;field</title>
<path fill="none" stroke="#000000" d="M369.358,-648.2022C378.7823,-638.6452 390.497,-626.7655 400.5552,-616.5656"/>
<polygon fill="#000000" stroke="#000000" points="403.3292,-618.7373 407.8585,-609.1594 398.3449,-613.8223 403.3292,-618.7373"/>
</g>
<!-- perfect field -->
<g id="node8" class="node">
<title>perfect field</title>
<ellipse fill="none" stroke="#000000" cx="494.8074" cy="-666" rx="52.668" ry="18"/>
<text text-anchor="middle" x="494.8074" y="-661.8" font-family="Times,serif" font-size="14.00" fill="#000000">perfect field</text>
</g>
<!-- perfect field&#45;&gt;field -->
<g id="edge5" class="edge">
<title>perfect field&#45;&gt;field</title>
<path fill="none" stroke="#000000" d="M477.7444,-648.937C467.9733,-639.1659 455.6003,-626.7928 445.0713,-616.2639"/>
<polygon fill="#000000" stroke="#000000" points="447.3402,-613.583 437.7942,-608.9868 442.3904,-618.5327 447.3402,-613.583"/>
</g>
<!-- field&#45;&gt;Euclidean domain -->
<g id="edge9" class="edge">
<title>field&#45;&gt;Euclidean domain</title>
<path fill="none" stroke="#000000" d="M400.0039,-583.9887C375.3575,-573.1683 335.4337,-555.6408 304.3168,-541.9797"/>
<polygon fill="#000000" stroke="#000000" points="305.5326,-538.6911 294.9692,-537.8759 302.7186,-545.1006 305.5326,-538.6911"/>
</g>
<!-- regular local -->
<g id="node13" class="node">
<title>regular local</title>
<ellipse fill="none" stroke="#000000" cx="111.8074" cy="-450" rx="54.5888" ry="18"/>
<text text-anchor="middle" x="111.8074" y="-445.8" font-family="Times,serif" font-size="14.00" fill="#000000">regular local</text>
</g>
<!-- field&#45;&gt;regular local -->
<g id="edge10" class="edge">
<title>field&#45;&gt;regular local</title>
<path fill="none" stroke="#000000" d="M396.0994,-590.6298C339.9922,-583.1591 212.0624,-563.958 175.8074,-540 152.4704,-524.5784 134.9466,-497.5036 124.1897,-477.0666"/>
<polygon fill="#000000" stroke="#000000" points="127.2132,-475.2886 119.5918,-467.9288 120.9601,-478.435 127.2132,-475.2886"/>
</g>
<!-- universally Japanese domain -->
<g id="node18" class="node">
<title>universally Japanese domain</title>
<ellipse fill="none" stroke="#000000" cx="624.8074" cy="-522" rx="111.5534" ry="18"/>
<text text-anchor="middle" x="624.8074" y="-517.8" font-family="Times,serif" font-size="14.00" fill="#000000">universally Japanese domain</text>
</g>
<!-- field&#45;&gt;universally Japanese domain -->
<g id="edge15" class="edge">
<title>field&#45;&gt;universally Japanese domain</title>
<path fill="none" stroke="#000000" d="M446.7727,-585.4579C476.7022,-574.79 528.8516,-556.2021 568.9994,-541.892"/>
<polygon fill="#000000" stroke="#000000" points="570.4219,-545.1007 578.6663,-538.4463 568.0717,-538.507 570.4219,-545.1007"/>
</g>
<!-- Goldman domain -->
<g id="node22" class="node">
<title>Goldman domain</title>
<ellipse fill="none" stroke="#000000" cx="744.8074" cy="-450" rx="71.5135" ry="18"/>
<text text-anchor="middle" x="744.8074" y="-445.8" font-family="Times,serif" font-size="14.00" fill="#000000">Goldman domain</text>
</g>
<!-- field&#45;&gt;Goldman domain -->
<g id="edge37" class="edge">
<title>field&#45;&gt;Goldman domain</title>
<path fill="none" stroke="#000000" d="M449.7963,-591.4746C523.9589,-584.2649 726.6345,-562.6444 745.8074,-540 760.0153,-523.2196 758.3023,-497.6954 753.8778,-478.1091"/>
<polygon fill="#000000" stroke="#000000" points="757.2081,-477.0082 751.3062,-468.2094 750.4329,-478.7682 757.2081,-477.0082"/>
</g>
<!-- valuation domain -->
<g id="node29" class="node">
<title>valuation domain</title>
<ellipse fill="none" stroke="#000000" cx="422.8074" cy="-522" rx="71.5048" ry="18"/>
<text text-anchor="middle" x="422.8074" y="-517.8" font-family="Times,serif" font-size="14.00" fill="#000000">valuation domain</text>
</g>
<!-- field&#45;&gt;valuation domain -->
<g id="edge39" class="edge">
<title>field&#45;&gt;valuation domain</title>
<path fill="none" stroke="#000000" d="M422.8074,-575.8314C422.8074,-568.131 422.8074,-558.9743 422.8074,-550.4166"/>
<polygon fill="#000000" stroke="#000000" points="426.3075,-550.4132 422.8074,-540.4133 419.3075,-550.4133 426.3075,-550.4132"/>
</g>
<!-- N&#45;1 -->
<g id="node10" class="node">
<title>N&#45;1</title>
<ellipse fill="none" stroke="#000000" cx="290.8074" cy="-90" rx="27" ry="18"/>
<text text-anchor="middle" x="290.8074" y="-85.8" font-family="Times,serif" font-size="14.00" fill="#000000">N&#45;1</text>
</g>
<!-- N&#45;1&#45;&gt;domain -->
<g id="edge7" class="edge">
<title>N&#45;1&#45;&gt;domain</title>
<path fill="none" stroke="#000000" d="M279.2347,-73.6621C272.9156,-64.741 264.9506,-53.4962 257.8364,-43.4528"/>
<polygon fill="#000000" stroke="#000000" points="260.5027,-41.1617 251.8664,-35.0245 254.7906,-45.2079 260.5027,-41.1617"/>
</g>
<!-- Schreier domain -->
<g id="node27" class="node">
<title>Schreier domain</title>
<ellipse fill="none" stroke="#000000" cx="290.8074" cy="-234" rx="68.1129" ry="18"/>
<text text-anchor="middle" x="290.8074" y="-229.8" font-family="Times,serif" font-size="14.00" fill="#000000">Schreier domain</text>
</g>
<!-- GCD domain&#45;&gt;Schreier domain -->
<g id="edge29" class="edge">
<title>GCD domain&#45;&gt;Schreier domain</title>
<path fill="none" stroke="#000000" d="M286.3215,-287.8314C286.9632,-280.131 287.7262,-270.9743 288.4393,-262.4166"/>
<polygon fill="#000000" stroke="#000000" points="291.9303,-262.6694 289.273,-252.4133 284.9545,-262.088 291.9303,-262.6694"/>
</g>
<!-- regular local&#45;&gt;unique factorization domain -->
<g id="edge12" class="edge">
<title>regular local&#45;&gt;unique factorization domain</title>
<path fill="none" stroke="#000000" d="M111.3027,-431.8314C111.0888,-424.131 110.8345,-414.9743 110.5968,-406.4166"/>
<polygon fill="#000000" stroke="#000000" points="114.0953,-406.3122 110.3189,-396.4133 107.098,-406.5066 114.0953,-406.3122"/>
</g>
<!-- Dedekind domain&#45;&gt;Krull domain -->
<g id="edge41" class="edge">
<title>Dedekind domain&#45;&gt;Krull domain</title>
<path fill="none" stroke="#000000" d="M275.5201,-362.0209C251.4259,-351.1102 219.3871,-336.6021 193.9514,-325.0841"/>
<polygon fill="#000000" stroke="#000000" points="195.1099,-321.7666 184.5565,-320.8298 192.2223,-328.1433 195.1099,-321.7666"/>
</g>
<!-- almost Dedekind domain -->
<g id="node15" class="node">
<title>almost Dedekind domain</title>
<ellipse fill="none" stroke="#000000" cx="459.8074" cy="-306" rx="99.0329" ry="18"/>
<text text-anchor="middle" x="459.8074" y="-301.8" font-family="Times,serif" font-size="14.00" fill="#000000">almost Dedekind domain</text>
</g>
<!-- Dedekind domain&#45;&gt;almost Dedekind domain -->
<g id="edge11" class="edge">
<title>Dedekind domain&#45;&gt;almost Dedekind domain</title>
<path fill="none" stroke="#000000" d="M344.2459,-361.8418C365.361,-351.6385 392.8758,-338.3428 415.7601,-327.2846"/>
<polygon fill="#000000" stroke="#000000" points="417.4454,-330.3575 424.9264,-322.8552 414.3997,-324.0548 417.4454,-330.3575"/>
</g>
<!-- Prufer domain -->
<g id="node23" class="node">
<title>Prufer domain</title>
<ellipse fill="none" stroke="#000000" cx="459.8074" cy="-234" rx="60.8876" ry="18"/>
<text text-anchor="middle" x="459.8074" y="-229.8" font-family="Times,serif" font-size="14.00" fill="#000000">Prufer domain</text>
</g>
<!-- almost Dedekind domain&#45;&gt;Prufer domain -->
<g id="edge22" class="edge">
<title>almost Dedekind domain&#45;&gt;Prufer domain</title>
<path fill="none" stroke="#000000" d="M459.8074,-287.8314C459.8074,-280.131 459.8074,-270.9743 459.8074,-262.4166"/>
<polygon fill="#000000" stroke="#000000" points="463.3075,-262.4132 459.8074,-252.4133 456.3075,-262.4133 463.3075,-262.4132"/>
</g>
<!-- algebraically closed field -->
<g id="node16" class="node">
<title>algebraically closed field</title>
<ellipse fill="none" stroke="#000000" cx="375.8074" cy="-810" rx="98.5139" ry="18"/>
<text text-anchor="middle" x="375.8074" y="-805.8" font-family="Times,serif" font-size="14.00" fill="#000000">algebraically closed field</text>
</g>
<!-- algebraically closed field&#45;&gt;perfect field -->
<g id="edge13" class="edge">
<title>algebraically closed field&#45;&gt;perfect field</title>
<path fill="none" stroke="#000000" d="M417.7566,-793.6826C435.4414,-784.9091 454.8814,-772.459 467.8074,-756 481.8345,-738.1389 488.5901,-713.0874 491.8347,-693.9485"/>
<polygon fill="#000000" stroke="#000000" points="495.3043,-694.4107 493.2999,-684.0072 488.3791,-693.39 495.3043,-694.4107"/>
</g>
<!-- quadratically closed field -->
<g id="node28" class="node">
<title>quadratically closed field</title>
<ellipse fill="none" stroke="#000000" cx="359.8074" cy="-738" rx="99.007" ry="18"/>
<text text-anchor="middle" x="359.8074" y="-733.8" font-family="Times,serif" font-size="14.00" fill="#000000">quadratically closed field</text>
</g>
<!-- algebraically closed field&#45;&gt;quadratically closed field -->
<g id="edge32" class="edge">
<title>algebraically closed field&#45;&gt;quadratically closed field</title>
<path fill="none" stroke="#000000" d="M371.7699,-791.8314C370.0587,-784.131 368.0239,-774.9743 366.1222,-766.4166"/>
<polygon fill="#000000" stroke="#000000" points="369.4853,-765.4159 363.8992,-756.4133 362.652,-766.9344 369.4853,-765.4159"/>
</g>
<!-- normal domain&#45;&gt;N&#45;1 -->
<g id="edge14" class="edge">
<title>normal domain&#45;&gt;N&#45;1</title>
<path fill="none" stroke="#000000" d="M290.8074,-143.8314C290.8074,-136.131 290.8074,-126.9743 290.8074,-118.4166"/>
<polygon fill="#000000" stroke="#000000" points="294.3075,-118.4132 290.8074,-108.4133 287.3075,-118.4133 294.3075,-118.4132"/>
</g>
<!-- Japanese (N&#45;2) -->
<g id="node19" class="node">
<title>Japanese (N&#45;2)</title>
<ellipse fill="none" stroke="#000000" cx="612.8074" cy="-234" rx="63.2759" ry="18"/>
<text text-anchor="middle" x="612.8074" y="-229.8" font-family="Times,serif" font-size="14.00" fill="#000000">Japanese (N&#45;2)</text>
</g>
<!-- universally Japanese domain&#45;&gt;Japanese (N&#45;2) -->
<g id="edge16" class="edge">
<title>universally Japanese domain&#45;&gt;Japanese (N&#45;2)</title>
<path fill="none" stroke="#000000" d="M624.0567,-503.9843C622.028,-455.2939 616.4239,-320.7961 613.9765,-262.0573"/>
<polygon fill="#000000" stroke="#000000" points="617.4711,-261.8545 613.5578,-252.0089 610.4772,-262.146 617.4711,-261.8545"/>
</g>
<!-- Japanese (N&#45;2)&#45;&gt;N&#45;1 -->
<g id="edge17" class="edge">
<title>Japanese (N&#45;2)&#45;&gt;N&#45;1</title>
<path fill="none" stroke="#000000" d="M578.6526,-218.7258C515.9686,-190.6932 383.4222,-131.4178 322.5674,-104.2032"/>
<polygon fill="#000000" stroke="#000000" points="323.9954,-101.0078 313.4378,-100.1204 321.1377,-107.398 323.9954,-101.0078"/>
</g>
<!-- Archimedean field -->
<g id="node20" class="node">
<title>Archimedean field</title>
<ellipse fill="none" stroke="#000000" cx="579.8074" cy="-882" rx="75.8461" ry="18"/>
<text text-anchor="middle" x="579.8074" y="-877.8" font-family="Times,serif" font-size="14.00" fill="#000000">Archimedean field</text>
</g>
<!-- Archimedean field&#45;&gt;ordered field -->
<g id="edge18" class="edge">
<title>Archimedean field&#45;&gt;ordered field</title>
<path fill="none" stroke="#000000" d="M579.8074,-863.8314C579.8074,-856.131 579.8074,-846.9743 579.8074,-838.4166"/>
<polygon fill="#000000" stroke="#000000" points="583.3075,-838.4132 579.8074,-828.4133 576.3075,-838.4133 583.3075,-838.4132"/>
</g>
<!-- characteristic 0 field -->
<g id="node26" class="node">
<title>characteristic 0 field</title>
<ellipse fill="none" stroke="#000000" cx="596.8074" cy="-738" rx="81.6095" ry="18"/>
<text text-anchor="middle" x="596.8074" y="-733.8" font-family="Times,serif" font-size="14.00" fill="#000000">characteristic 0 field</text>
</g>
<!-- ordered field&#45;&gt;characteristic 0 field -->
<g id="edge31" class="edge">
<title>ordered field&#45;&gt;characteristic 0 field</title>
<path fill="none" stroke="#000000" d="M584.0972,-791.8314C585.9154,-784.131 588.0773,-774.9743 590.0979,-766.4166"/>
<polygon fill="#000000" stroke="#000000" points="593.5682,-766.95 592.4598,-756.4133 586.7555,-765.3414 593.5682,-766.95"/>
</g>
<!-- Goldman domain&#45;&gt;domain -->
<g id="edge21" class="edge">
<title>Goldman domain&#45;&gt;domain</title>
<path fill="none" stroke="#000000" d="M738.2331,-431.6321C729.1333,-404.5223 713.8074,-352.0309 713.8074,-306 713.8074,-306 713.8074,-306 713.8074,-162 713.8074,-73.2965 406.0637,-34.0486 286.5111,-22.1483"/>
<polygon fill="#000000" stroke="#000000" points="286.5067,-18.6314 276.2143,-21.1449 285.8277,-25.5984 286.5067,-18.6314"/>
</g>
<!-- Prufer domain&#45;&gt;normal domain -->
<g id="edge34" class="edge">
<title>Prufer domain&#45;&gt;normal domain</title>
<path fill="none" stroke="#000000" d="M424.7905,-219.0816C398.9315,-208.0647 363.5264,-192.9809 335.6056,-181.0856"/>
<polygon fill="#000000" stroke="#000000" points="336.6415,-177.7226 326.0698,-177.023 333.8978,-184.1625 336.6415,-177.7226"/>
</g>
<!-- Mori domain&#45;&gt;domain -->
<g id="edge36" class="edge">
<title>Mori domain&#45;&gt;domain</title>
<path fill="none" stroke="#000000" d="M189.0262,-72.5708C197.4605,-63.5071 207.9073,-52.2807 217.1286,-42.3713"/>
<polygon fill="#000000" stroke="#000000" points="219.9492,-44.4779 224.1993,-34.7729 214.8247,-39.7093 219.9492,-44.4779"/>
</g>
<!-- Bezout domain&#45;&gt;GCD domain -->
<g id="edge35" class="edge">
<title>Bezout domain&#45;&gt;GCD domain</title>
<path fill="none" stroke="#000000" d="M428.7426,-363.256C400.185,-351.8961 360.5677,-336.1367 330.1251,-324.0269"/>
<polygon fill="#000000" stroke="#000000" points="331.1747,-320.6777 320.5891,-320.2336 328.5873,-327.182 331.1747,-320.6777"/>
</g>
<!-- Bezout domain&#45;&gt;Prufer domain -->
<g id="edge30" class="edge">
<title>Bezout domain&#45;&gt;Prufer domain</title>
<path fill="none" stroke="#000000" d="M512.1402,-365.5004C532.9879,-357.311 555.6119,-344.2555 567.8074,-324 576.0603,-310.2927 576.2191,-301.6104 567.8074,-288 556.3947,-269.5338 536.5432,-257.1712 516.9475,-248.9958"/>
<polygon fill="#000000" stroke="#000000" points="517.9761,-245.6414 507.3865,-245.3105 515.4584,-252.173 517.9761,-245.6414"/>
</g>
<!-- characteristic 0 field&#45;&gt;perfect field -->
<g id="edge27" class="edge">
<title>characteristic 0 field&#45;&gt;perfect field</title>
<path fill="none" stroke="#000000" d="M572.3759,-720.7542C558.5809,-711.0166 541.1878,-698.7391 526.3693,-688.279"/>
<polygon fill="#000000" stroke="#000000" points="528.1768,-685.2707 517.9887,-682.3632 524.1399,-690.9895 528.1768,-685.2707"/>
</g>
<!-- Schreier domain&#45;&gt;normal domain -->
<g id="edge28" class="edge">
<title>Schreier domain&#45;&gt;normal domain</title>
<path fill="none" stroke="#000000" d="M290.8074,-215.8314C290.8074,-208.131 290.8074,-198.9743 290.8074,-190.4166"/>
<polygon fill="#000000" stroke="#000000" points="294.3075,-190.4132 290.8074,-180.4133 287.3075,-190.4133 294.3075,-190.4132"/>
</g>
<!-- quadratically closed field&#45;&gt;Pythagorean field -->
<g id="edge38" class="edge">
<title>quadratically closed field&#45;&gt;Pythagorean field</title>
<path fill="none" stroke="#000000" d="M357.7887,-719.8314C356.9331,-712.131 355.9157,-702.9743 354.9648,-694.4166"/>
<polygon fill="#000000" stroke="#000000" points="358.4363,-693.9656 353.8533,-684.4133 351.4791,-694.7386 358.4363,-693.9656"/>
</g>
<!-- valuation domain&#45;&gt;Bezout domain -->
<g id="edge40" class="edge">
<title>valuation domain&#45;&gt;Bezout domain</title>
<path fill="none" stroke="#000000" d="M428.2534,-503.7623C435.62,-479.0928 448.8284,-434.8598 457.4543,-405.9731"/>
<polygon fill="#000000" stroke="#000000" points="460.898,-406.673 460.4056,-396.0896 454.1906,-404.6701 460.898,-406.673"/>
</g>
</g>
</svg>
