<?xml version="1.0" encoding="UTF-8" standalone="no"?>
<!DOCTYPE svg PUBLIC "-//W3C//DTD SVG 1.1//EN"
 "http://www.w3.org/Graphics/SVG/1.1/DTD/svg11.dtd">
<!-- Generated by graphviz version 2.40.1 (20161225.0304)
 -->
<!-- Title: %3 Pages: 1 -->
<svg width="552pt" height="498pt"
 viewBox="0.00 0.00 551.85 498.00" xmlns="http://www.w3.org/2000/svg" xmlns:xlink="http://www.w3.org/1999/xlink">
<g id="graph0" class="graph" transform="scale(1 1) rotate(0) translate(4 494)">
<title>%3</title>
<polygon fill="#ffffff" stroke="transparent" points="-4,4 -4,-494 547.8531,-494 547.8531,4 -4,4"/>
<text text-anchor="middle" x="271.9265" y="-474.8" font-family="Times,serif" font-size="14.00" fill="#000000">Local ring properties (Database of Ring Theory, by R. C. Schwiebert)</text>
<!-- complete local -->
<g id="node1" class="node">
<title>complete local</title>
<ellipse fill="none" stroke="#000000" cx="105.1011" cy="-306" rx="61.8309" ry="18"/>
<text text-anchor="middle" x="105.1011" y="-301.8" font-family="Times,serif" font-size="14.00" fill="#000000">complete local</text>
</g>
<!-- Henselian local -->
<g id="node2" class="node">
<title>Henselian local</title>
<ellipse fill="none" stroke="#000000" cx="105.1011" cy="-162" rx="64.7295" ry="18"/>
<text text-anchor="middle" x="105.1011" y="-157.8" font-family="Times,serif" font-size="14.00" fill="#000000">Henselian local</text>
</g>
<!-- complete local&#45;&gt;Henselian local -->
<g id="edge1" class="edge">
<title>complete local&#45;&gt;Henselian local</title>
<path fill="none" stroke="#000000" d="M105.1011,-287.7623C105.1011,-263.201 105.1011,-219.2474 105.1011,-190.3541"/>
<polygon fill="#000000" stroke="#000000" points="108.6012,-190.0896 105.1011,-180.0896 101.6012,-190.0897 108.6012,-190.0896"/>
</g>
<!-- local -->
<g id="node11" class="node">
<title>local</title>
<ellipse fill="none" stroke="#000000" cx="291.1011" cy="-18" rx="27.0873" ry="18"/>
<text text-anchor="middle" x="291.1011" y="-13.8" font-family="Times,serif" font-size="14.00" fill="#000000">local</text>
</g>
<!-- Henselian local&#45;&gt;local -->
<g id="edge13" class="edge">
<title>Henselian local&#45;&gt;local</title>
<path fill="none" stroke="#000000" d="M116.7549,-144.1973C130.3314,-124.5329 154.3435,-92.8931 181.1011,-72 204.2829,-53.8989 234.5072,-39.5997 257.4067,-30.2752"/>
<polygon fill="#000000" stroke="#000000" points="258.719,-33.52 266.7305,-26.5869 256.1441,-27.0108 258.719,-33.52"/>
</g>
<!-- field -->
<g id="node3" class="node">
<title>field</title>
<ellipse fill="none" stroke="#000000" cx="286.1011" cy="-450" rx="27" ry="18"/>
<text text-anchor="middle" x="286.1011" y="-445.8" font-family="Times,serif" font-size="14.00" fill="#000000">field</text>
</g>
<!-- regular local -->
<g id="node4" class="node">
<title>regular local</title>
<ellipse fill="none" stroke="#000000" cx="374.1011" cy="-378" rx="54.5888" ry="18"/>
<text text-anchor="middle" x="374.1011" y="-373.8" font-family="Times,serif" font-size="14.00" fill="#000000">regular local</text>
</g>
<!-- field&#45;&gt;regular local -->
<g id="edge2" class="edge">
<title>field&#45;&gt;regular local</title>
<path fill="none" stroke="#000000" d="M303.487,-435.7751C315.5461,-425.9086 331.8774,-412.5467 345.7968,-401.158"/>
<polygon fill="#000000" stroke="#000000" points="348.1399,-403.7632 353.6632,-394.7219 343.7073,-398.3454 348.1399,-403.7632"/>
</g>
<!-- primary -->
<g id="node5" class="node">
<title>primary</title>
<ellipse fill="none" stroke="#000000" cx="38.1011" cy="-378" rx="38.2024" ry="18"/>
<text text-anchor="middle" x="38.1011" y="-373.8" font-family="Times,serif" font-size="14.00" fill="#000000">primary</text>
</g>
<!-- field&#45;&gt;primary -->
<g id="edge3" class="edge">
<title>field&#45;&gt;primary</title>
<path fill="none" stroke="#000000" d="M260.6177,-443.9444C222.3903,-434.6752 148.0711,-415.9356 86.1011,-396 83.1873,-395.0627 80.1902,-394.0523 77.1847,-393.0055"/>
<polygon fill="#000000" stroke="#000000" points="78.2428,-389.6667 67.6483,-389.5826 75.8779,-396.2552 78.2428,-389.6667"/>
</g>
<!-- Noetherian complete local -->
<g id="node6" class="node">
<title>Noetherian complete local</title>
<ellipse fill="none" stroke="#000000" cx="198.1011" cy="-378" rx="103.3247" ry="18"/>
<text text-anchor="middle" x="198.1011" y="-373.8" font-family="Times,serif" font-size="14.00" fill="#000000">Noetherian complete local</text>
</g>
<!-- field&#45;&gt;Noetherian complete local -->
<g id="edge4" class="edge">
<title>field&#45;&gt;Noetherian complete local</title>
<path fill="none" stroke="#000000" d="M268.7151,-435.7751C256.991,-426.1827 241.2287,-413.2863 227.5707,-402.1115"/>
<polygon fill="#000000" stroke="#000000" points="229.7745,-399.3924 219.8186,-395.7689 225.3418,-404.8102 229.7745,-399.3924"/>
</g>
<!-- valuation domain -->
<g id="node12" class="node">
<title>valuation domain</title>
<ellipse fill="none" stroke="#000000" cx="472.1011" cy="-234" rx="71.5048" ry="18"/>
<text text-anchor="middle" x="472.1011" y="-229.8" font-family="Times,serif" font-size="14.00" fill="#000000">valuation domain</text>
</g>
<!-- field&#45;&gt;valuation domain -->
<g id="edge12" class="edge">
<title>field&#45;&gt;valuation domain</title>
<path fill="none" stroke="#000000" d="M313.027,-448.2223C347.3404,-444.4533 406.038,-432.6933 438.1011,-396 470.832,-358.5424 474.845,-297.6761 474.0114,-262.1813"/>
<polygon fill="#000000" stroke="#000000" points="477.5031,-261.8931 473.6236,-252.0342 470.5082,-262.1606 477.5031,-261.8931"/>
</g>
<!-- local complete intersection -->
<g id="node7" class="node">
<title>local complete intersection</title>
<ellipse fill="none" stroke="#000000" cx="336.1011" cy="-306" rx="105.2628" ry="18"/>
<text text-anchor="middle" x="336.1011" y="-301.8" font-family="Times,serif" font-size="14.00" fill="#000000">local complete intersection</text>
</g>
<!-- regular local&#45;&gt;local complete intersection -->
<g id="edge6" class="edge">
<title>regular local&#45;&gt;local complete intersection</title>
<path fill="none" stroke="#000000" d="M364.7078,-360.2022C360.4014,-352.0428 355.2015,-342.1904 350.4227,-333.1358"/>
<polygon fill="#000000" stroke="#000000" points="353.4132,-331.3033 345.6502,-324.0931 347.2225,-334.5707 353.4132,-331.3033"/>
</g>
<!-- primary&#45;&gt;complete local -->
<g id="edge14" class="edge">
<title>primary&#45;&gt;complete local</title>
<path fill="none" stroke="#000000" d="M53.6406,-361.3008C62.0195,-352.2965 72.5268,-341.0052 81.8587,-330.9769"/>
<polygon fill="#000000" stroke="#000000" points="84.4609,-333.3182 88.711,-323.6132 79.3364,-328.5496 84.4609,-333.3182"/>
</g>
<!-- Noetherian complete local&#45;&gt;complete local -->
<g id="edge5" class="edge">
<title>Noetherian complete local&#45;&gt;complete local</title>
<path fill="none" stroke="#000000" d="M175.1123,-360.2022C163.1106,-350.9106 148.2733,-339.4237 135.3511,-329.4194"/>
<polygon fill="#000000" stroke="#000000" points="137.2348,-326.4515 127.185,-323.0972 132.9496,-331.9865 137.2348,-326.4515"/>
</g>
<!-- local universally catenary -->
<g id="node10" class="node">
<title>local universally catenary</title>
<ellipse fill="none" stroke="#000000" cx="291.1011" cy="-90" rx="100.9106" ry="18"/>
<text text-anchor="middle" x="291.1011" y="-85.8" font-family="Times,serif" font-size="14.00" fill="#000000">local universally catenary</text>
</g>
<!-- Noetherian complete local&#45;&gt;local universally catenary -->
<g id="edge11" class="edge">
<title>Noetherian complete local&#45;&gt;local universally catenary</title>
<path fill="none" stroke="#000000" d="M194.7606,-359.8267C188.1265,-318.4497 177.1562,-215.2935 217.1011,-144 224.1698,-131.3837 235.553,-120.9171 247.294,-112.6648"/>
<polygon fill="#000000" stroke="#000000" points="249.411,-115.4618 255.8499,-107.048 245.5695,-109.6101 249.411,-115.4618"/>
</g>
<!-- local Gorenstein -->
<g id="node8" class="node">
<title>local Gorenstein</title>
<ellipse fill="none" stroke="#000000" cx="314.1011" cy="-234" rx="68.1129" ry="18"/>
<text text-anchor="middle" x="314.1011" y="-229.8" font-family="Times,serif" font-size="14.00" fill="#000000">local Gorenstein</text>
</g>
<!-- local complete intersection&#45;&gt;local Gorenstein -->
<g id="edge7" class="edge">
<title>local complete intersection&#45;&gt;local Gorenstein</title>
<path fill="none" stroke="#000000" d="M330.5495,-287.8314C328.1708,-280.0463 325.3372,-270.7729 322.6978,-262.1347"/>
<polygon fill="#000000" stroke="#000000" points="325.9968,-260.954 319.7273,-252.4133 319.3024,-262.9996 325.9968,-260.954"/>
</g>
<!-- local Cohen&#45;Macaulay -->
<g id="node9" class="node">
<title>local Cohen&#45;Macaulay</title>
<ellipse fill="none" stroke="#000000" cx="316.1011" cy="-162" rx="90.3038" ry="18"/>
<text text-anchor="middle" x="316.1011" y="-157.8" font-family="Times,serif" font-size="14.00" fill="#000000">local Cohen&#45;Macaulay</text>
</g>
<!-- local Gorenstein&#45;&gt;local Cohen&#45;Macaulay -->
<g id="edge8" class="edge">
<title>local Gorenstein&#45;&gt;local Cohen&#45;Macaulay</title>
<path fill="none" stroke="#000000" d="M314.6057,-215.8314C314.8196,-208.131 315.074,-198.9743 315.3117,-190.4166"/>
<polygon fill="#000000" stroke="#000000" points="318.8105,-190.5066 315.5896,-180.4133 311.8132,-190.3122 318.8105,-190.5066"/>
</g>
<!-- local Cohen&#45;Macaulay&#45;&gt;local universally catenary -->
<g id="edge9" class="edge">
<title>local Cohen&#45;Macaulay&#45;&gt;local universally catenary</title>
<path fill="none" stroke="#000000" d="M309.7925,-143.8314C307.0894,-136.0463 303.8694,-126.7729 300.8701,-118.1347"/>
<polygon fill="#000000" stroke="#000000" points="304.0811,-116.7119 297.4945,-108.4133 297.4684,-119.0081 304.0811,-116.7119"/>
</g>
<!-- local universally catenary&#45;&gt;local -->
<g id="edge10" class="edge">
<title>local universally catenary&#45;&gt;local</title>
<path fill="none" stroke="#000000" d="M291.1011,-71.8314C291.1011,-64.131 291.1011,-54.9743 291.1011,-46.4166"/>
<polygon fill="#000000" stroke="#000000" points="294.6012,-46.4132 291.1011,-36.4133 287.6012,-46.4133 294.6012,-46.4132"/>
</g>
<!-- valuation domain&#45;&gt;local -->
<g id="edge15" class="edge">
<title>valuation domain&#45;&gt;local</title>
<path fill="none" stroke="#000000" d="M468.4815,-215.9089C461.1208,-183.3268 441.5604,-114.2499 401.1011,-72 380.6301,-50.6231 349.9213,-36.5324 326.1483,-28.122"/>
<polygon fill="#000000" stroke="#000000" points="327.0286,-24.7256 316.4346,-24.8606 324.8005,-31.3615 327.0286,-24.7256"/>
</g>
</g>
</svg>
